# AST/ASF file generated using VICON BodyLanguage
# -----------------------------------------------
:version 1.10
:name VICON
:units
  mass 1.0
  length 0.45
  angle deg
:documentation
   .ast/.asf automatically generated from VICON data using
   VICON BodyBuilder and BodyLanguage model FoxedUp or BRILLIANT.MOD
:root
   order TX TY TZ RX RY RZ
   axis XYZ
   position 0 0 0  
   orientation 0 0 0 
:bonedata
  begin
     id 1 
     name lhipjoint
     direction 0.635376 -0.686425 0.353719 
     length 2.47244 
     axis 0 0 0  XYZ
  end
  begin
     id 2 
     name lfemur
     direction 0.34202 -0.939693 0  
     length 7.25268  
     axis 0 0 20  XYZ
    dof rx ry rz
    limits (-160.0 20.0)
           (-70.0 70.0)
           (-60.0 70.0)
  end
  begin
     id 3 
     name ltibia
     direction 0.34202 -0.939693 0   
     length 7.6767   
     axis 0 0 20   XYZ
    dof rx
    limits (-10.0 170.0)
  end
  begin
     id 4 
     name lfoot
     direction 0.0803374 -0.220725 0.972022   
     length 2.22945   
     axis -90 7.62852e-016 20   XYZ
    dof rx rz
    limits (-45.0 90.0)
           (-70.0 20.0)
  end
  begin
     id 5 
     name ltoes
     direction 1.53579e-011 -4.21994e-011 1   
     length 1.11848   
     axis -90 7.62852e-016 20   XYZ
    dof rx
    limits (-90.0 20.0)
  end
  begin
     id 6 
     name rhipjoint
     direction -0.664428 -0.664335 0.342336   
     length 2.55466  
     axis 0 0 0  XYZ 
  end
  begin
     id 7 
     name rfemur
     direction -0.34202 -0.939693 0   
     length 6.83172   
     axis 0 0 -20   XYZ
    dof rx ry rz
    limits (-160.0 20.0)
           (-70.0 70.0)
           (-70.0 60.0)
  end
  begin
     id 8 
     name rtibia
     direction -0.34202 -0.939693 0   
     length 7.62692   
     axis 0 0 -20   XYZ
    dof rx
    limits (-10.0 170.0)
 end
 begin
     id 9 
     name rfoot
     direction -0.0949276 -0.260811 0.960711   
     length 2.19684  
     axis -90 -7.62852e-016 -20   XYZ
    dof rx rz
    limits (-45.0 90.0)
           (-20.0 70.0)
  end
  begin
     id 10 
     name rtoes
     direction -1.53543e-011 -4.2183e-011 1   
     length 1.09848   
     axis -90 -7.62852e-016 -20   XYZ
    dof rx
    limits (-90.0 20.0)
  end
  begin
     id 11 
     name lowerback
     direction 0.0118782 0.999815 -0.0151555   
     length 2.15772   
     axis 0 0 0   XYZ
    dof rx ry rz
    limits (-20.0 45.0)
           (-30.0 30.0)
           (-30.0 30.0)
  end
  begin
     id 12 
     name upperback
     direction 0.00130825 0.999065 0.0432113   
     length 2.14863   
     axis 0 0 0   XYZ
    dof rx ry rz
    limits (-20.0 45.0)
           (-30.0 30.0)
           (-30.0 30.0)
  end
  begin
     id 13 
     name thorax
     direction -0.00347005 0.998773 0.0494011   
     length 2.14936   
     axis 0 0 0   XYZ
    dof rx ry rz
    limits (-20.0 45.0)
           (-30.0 30.0)
           (-30.0 30.0)
  end
  begin
     id 14 
     name lowerneck
     direction -0.0262159 0.99424 0.103921   
     length 1.69373   
     axis 0 0 0   XYZ
    dof rx ry rz
    limits (-20.0 45.0)
           (-30.0 30.0)
           (-30.0 30.0)
  end
  begin
     id 15 
     name upperneck
     direction 0.0353511 0.977394 -0.20845   
     length 1.70857   
     axis 0 0 0   XYZ
    dof rx ry rz
    limits (-20.0 45.0)
           (-30.0 30.0)
           (-30.0 30.0)
  end
  begin
     id 16
     name head
     direction 0.0139214 0.996594 -0.0812836  
     length 1.72777  
     axis 0 0 0   XYZ
    dof rx ry rz
    limits (-20.0 45.0)
           (-30.0 30.0)
           (-30.0 30.0)
  end
  begin
     id 17 
     name lclavicle
     direction 0.841247 0.537205 -0.0609508  
     length 3.55371  
     axis 0 0 0   XYZ
    dof ry rz
    limits (-20.0 10.0)
           (0.0 20.0)
  end
  begin
     id 18 
     name lhumerus
     direction 1 -4.48964e-011 1.60116e-018   
     length 4.91377   
     axis -180 -30 -90   XYZ
    dof rx ry rz
    limits (-60.0 90.0)
           (-90.0 90.0)
           (-90.0 90.0)
  end
  begin
     id 19
     name lradius
     direction 1 -4.48989e-011 -8.93847e-027   
     length 3.00291   
     axis -180 -30 -90   XYZ
    dof rx
    limits (-10.0 170.0)
  end
  begin
     id 20
     name lwrist
     direction 1 -4.48932e-011 -7.31504e-027   
     length 1.50145   
     axis 5.74121e-015 90 90   XYZ
    dof ry
    limits (-180.0 0.0)
 end
  begin
     id 21 
     name lhand
     direction 1 -4.48971e-011 -1.46301e-026   
     length 0.450922   
     axis 9.33524e-015 90 90   XYZ
    dof rx rz
    limits (-90.0 90.0)
           (-45.0 45.0)
  end
  begin
     id 22 
     name lfingers
     direction 1 -4.49039e-011 -2.92602e-026   
     length 0.363545   
     axis 1.86705e-014 90 90   XYZ
    dof rx
    limits (0.0 90.0)
  end
  begin
     id 23
     name lthumb
     direction 0.707107 -6.34941e-011 0.707107   
     length 0.52198   
     axis -90 45 2.85299e-015   XYZ
    dof rx rz
    limits (-45.0 45.0)
           (-45.0 45.0)
  end
  begin
     id 24 
     name rclavicle
     direction -0.825079 0.56158 -0.0622297   
     length 3.39909  
     axis 0 0 0   XYZ 
    dof ry rz
    limits (-10.0 20.0)
           (-20.0 0.0)
  end
  begin
     id 25 
     name rhumerus
     direction -1 -4.48965e-011 1.61691e-027  
     length 4.86725   
     axis -180 30 90   XYZ
    dof rx ry rz
    limits (-90.0 60.0)
           (-90.0 90.0)
           (-90.0 90.0)
  end
  begin
     id 26 
     name rradius
     direction -1 -4.48964e-011 -2.25776e-027   
     length 3.17144   
     axis -180 30 90   XYZ
    dof rx
    limits (-10.0 170.0)
  end
  begin
     id 27 
     name rwrist
     direction -1 -4.48961e-011 -7.31504e-027   
     length 1.58572   
     axis 5.74121e-015 -90 -90   XYZ
    dof ry
    limits (-180.0 0.0)
  end
  begin
     id 28
     name rhand
     direction -1 -4.49013e-011 -1.46301e-026   
     length 0.419368   
     axis 9.33524e-015 -90 -90   XYZ
    dof rx rz
    limits (-90.0 90.0)
           (-45.0 45.0)
  end
  begin
     id 29
     name rfingers
     direction -1 -4.489e-011 -2.92602e-026   
     length 0.338105   
     axis 1.86705e-014 -90 -90   XYZ
    dof rx
    limits (0.0 90.0)
  end
  begin
     id 30
     name rthumb
     direction -0.707107 -6.35022e-011 0.707107   
     length 0.485453   
     axis -90 -45 -2.85299e-015   XYZ
    dof rx rz
    limits (-45.0 45.0)
           (-45.0 45.0)
  end
:hierarchy
  begin
    root lhipjoint rhipjoint lowerback
    lhipjoint lfemur
    lfemur ltibia
    ltibia lfoot
    lfoot ltoes
    rhipjoint rfemur
    rfemur rtibia
    rtibia rfoot
    rfoot rtoes
    lowerback upperback
    upperback thorax
    thorax lowerneck lclavicle rclavicle
    lowerneck upperneck
    upperneck head
    lclavicle lhumerus
    lhumerus lradius
    lradius lwrist
    lwrist lhand lthumb
    lhand lfingers
    rclavicle rhumerus
    rhumerus rradius
    rradius rwrist
    rwrist rhand rthumb
    rhand rfingers
  end

#!OML:ASF H:\Swim 2\Project 1\Capture day 1\Session 1\male.ASF
:FULLY-SPECIFIED
:DEGREES
485
root 6.51042 14.719 9.72102 101.678 -67.6632 2.85278
lowerback -7.66188 3.44074 7.6021
upperback -6.96301 4.11683 -6.25621
thorax -2.05667 1.65523 -10.7255
lowerneck -16.3832 -2.77485 -6.72596
upperneck 28.2124 -4.37484 7.10831
head 12.3458 -1.78609 3.17752
rclavicle 1.43125e-014 3.22031e-014
rhumerus 75.6389 -29.6408 -13.9325
rradius 34.0998
rwrist -14.5611
rhand -23.6034 -1.31389
rfingers 7.12502
rthumb 2.8604 -31.2745
lclavicle 1.43125e-014 3.22031e-014
lhumerus 86.4436 34.8025 1.24675
lradius 33.9142
lwrist 69.5382
lhand -37.288 -11.8572
lfingers 7.12502
lthumb -10.3524 17.868
rfemur -72.3221 1.04327 22.8508
rtibia 61.2595
rfoot 11.7202 -2.91868
rtoes 11.2354
lfemur -71.9564 14.6591 -38.4834
ltibia 65.9417
lfoot 2.76251 6.23981
ltoes 6.19602
486
root 6.5104 14.7292 9.72924 101.85 -67.7654 2.63734
lowerback -7.64183 3.4593 7.49713
upperback -6.98391 4.14859 -6.24834
thorax -2.08807 1.67311 -10.6531
lowerneck -16.5206 -2.87013 -6.85492
upperneck 28.0069 -4.44933 7.13292
head 12.3033 -1.82507 3.19212
rclavicle 9.54166e-015 3.42904e-014
rhumerus 75.2763 -29.7612 -13.5461
rradius 33.817
rwrist -12.1692
rhand -23.5002 -0.412845
rfingers 7.12502
rthumb 2.96002 -30.372
lclavicle 9.54166e-015 3.42904e-014
lhumerus 86.2467 34.6108 1.16379
lradius 33.8235
lwrist 69.3987
lhand -37.4271 -11.6662
lfingers 7.12502
lthumb -10.4866 18.0523
rfemur -72.5454 0.875316 23.0114
rtibia 62.2933
rfoot 11.7218 -2.9566
rtoes 11.4583
lfemur -72.2589 14.9338 -38.5605
ltibia 66.908
lfoot 2.96355 6.08391
ltoes 7.1747
487
root 6.50919 14.7399 9.73793 102.031 -67.8602 2.40646
lowerback -7.614 3.47488 7.40064
upperback -7.002 4.17628 -6.24058
thorax -2.12145 1.68864 -10.5867
lowerneck -16.6569 -2.96433 -6.99186
upperneck 27.7839 -4.5235 7.17446
head 12.2545 -1.86263 3.21413
rclavicle 4.92986e-014 -5.82439e-014
rhumerus 74.9103 -29.8791 -13.1901
rradius 33.511
rwrist -9.60778
rhand -23.5817 0.655413
rfingers 7.12502
rthumb 2.88138 -29.3049
lclavicle 4.92986e-014 -5.82439e-014
lhumerus 86.0326 34.4252 1.06218
lradius 33.7223
lwrist 69.2738
lhand -37.42 -11.6831
lfingers 7.12502
lthumb -10.4798 18.0357
rfemur -72.7685 0.717707 23.1764
rtibia 63.3114
rfoot 11.7445 -2.96602
rtoes 11.6431
lfemur -72.5575 15.1997 -38.6114
ltibia 67.8816
lfoot 3.15697 5.90834
ltoes 8.0897
488
root 6.50687 14.7509 9.74701 102.212 -67.9515 2.17143
lowerback -7.57767 3.48229 7.31494
upperback -7.01758 4.1925 -6.23462
thorax -2.15901 1.69765 -10.5303
lowerneck -16.78 -3.04898 -7.13801
upperneck 27.5172 -4.58367 7.23306
head 12.1854 -1.89309 3.24527
rclavicle 1.43125e-014 2.08724e-015
rhumerus 74.56 -29.991 -12.869
rradius 33.1782
rwrist -7.02045
rhand -23.7962 1.75131
rfingers 7.12502
rthumb 2.67422 -28.2117
lclavicle 1.43125e-014 2.08724e-015
lhumerus 85.7537 34.256 0.852535
lradius 33.5675
lwrist 69.1343
lhand -37.202 -11.9493
lfingers 7.12502
lthumb -10.2695 17.78
rfemur -72.9935 0.56522 23.3448
rtibia 64.3142
rfoot 11.785 -2.94163
rtoes 11.7273
lfemur -72.8505 15.4495 -38.6398
ltibia 68.8604
lfoot 3.33695 5.72569
ltoes 8.81463
489
root 6.50351 14.7621 9.75649 102.382 -68.0346 1.94393
lowerback -7.53911 3.48696 7.23942
upperback -7.02824 4.2046 -6.22909
thorax -2.19303 1.70461 -10.4808
lowerneck -16.8966 -3.12834 -7.2769
upperneck 27.2212 -4.63625 7.29127
head 12.103 -1.9195 3.27537
rclavicle 2.54444e-014 3.15074e-014
rhumerus 74.1965 -30.1064 -12.5409
rradius 32.8858
rwrist -4.69131
rhand -23.9709 2.56726
rfingers 7.12502
rthumb 2.50545 -27.3978
lclavicle 2.54444e-014 3.15074e-014
lhumerus 85.3797 34.1014 0.464826
lradius 33.354
lwrist 68.9091
lhand -36.8978 -12.3864
lfingers 7.12502
lthumb -9.97609 17.3572
rfemur -73.2181 0.413688 23.5236
rtibia 65.3021
rfoot 11.8276 -2.91489
rtoes 11.806
lfemur -73.1379 15.6801 -38.6442
ltibia 69.8436
lfoot 3.50554 5.52909
ltoes 9.26299
490
root 6.49945 14.7732 9.76604 102.532 -68.1107 1.73236
lowerback -7.50085 3.49141 7.1671
upperback -7.03393 4.21631 -6.22254
thorax -2.2216 1.71184 -10.4319
lowerneck -17.0083 -3.20652 -7.39986
upperneck 26.9035 -4.68317 7.326
head 12.01 -1.94454 3.29402
rclavicle -5.08889e-014 8.94531e-016
rhumerus 73.7989 -30.2202 -12.1806
rradius 32.6523
rwrist -2.79579
rhand -23.9648 2.97122
rfingers 7.12502
rthumb 2.51132 -26.9937
lclavicle -5.08889e-014 8.94531e-016
lhumerus 84.9035 33.9554 -0.111034
lradius 33.0783
lwrist 68.59
lhand -36.4834 -12.9571
lfingers 7.12502
lthumb -9.5762 16.8053
rfemur -73.4435 0.262299 23.7133
rtibia 66.2792
rfoot 11.8609 -2.8779
rtoes 11.8147
lfemur -73.4217 15.898 -38.6393
ltibia 70.8308
lfoot 3.68448 5.2894
ltoes 9.26473
491
root 6.49469 14.7841 9.77575 102.663 -68.1865 1.53733
lowerback -7.46497 3.49762 7.09081
upperback -7.036 4.23059 -6.21643
thorax -2.24462 1.72107 -10.3807
lowerneck -17.0835 -3.28278 -7.50106
upperneck 26.5155 -4.72108 7.32803
head 11.8806 -1.96777 3.29628
rclavicle -3.65764e-014 3.60794e-014
rhumerus 73.361 -30.3257 -11.7823
rradius 32.4973
rwrist -1.4521
rhand -23.6879 2.90604
rfingers 7.12502
rthumb 2.77878 -27.0556
lclavicle -3.65764e-014 3.60794e-014
lhumerus 84.3304 33.8017 -0.874712
lradius 32.7501
lwrist 68.1357
lhand -36.0603 -13.5244
lfingers 7.12502
lthumb -9.16803 16.2563
rfemur -73.67 0.105756 23.9094
rtibia 67.2468
rfoot 11.8779 -2.85475
rtoes 11.8409
lfemur -73.7024 16.104 -38.6349
ltibia 71.8235
lfoot 3.85122 5.012
ltoes 8.84671
492
root 6.48932 14.7947 9.78512 102.774 -68.2706 1.36249
lowerback -7.43844 3.50859 6.98906
upperback -7.03555 4.2522 -6.20854
thorax -2.25956 1.73572 -10.311
lowerneck -17.097 -3.35494 -7.57209
upperneck 26.0089 -4.74227 7.27738
head 11.6902 -1.98775 3.27362
rclavicle 2.8625e-014 3.73715e-014
rhumerus 72.8549 -30.4192 -11.3173
rradius 32.4148
rwrist -0.631763
rhand -23.1665 2.45304
rfingers 7.12502
rthumb 3.28233 -27.5014
lclavicle 2.8625e-014 3.73715e-014
lhumerus 83.6715 33.6225 -1.77133
lradius 32.4272
lwrist 67.5414
lhand -35.705 -13.9628
lfingers 7.12502
lthumb -8.82518 15.8327
rfemur -73.9025 -0.0571997 24.1059
rtibia 68.2074
rfoot 11.8771 -2.83888
rtoes 11.8196
lfemur -73.9815 16.2967 -38.6386
ltibia 72.8231
lfoot 3.98164 4.70895
ltoes 8.25649
493
root 6.48335 14.8052 9.79465 102.883 -68.3648 1.18775
lowerback -7.41648 3.52276 6.86467
upperback -7.03762 4.27896 -6.19975
thorax -2.27485 1.75381 -10.2264
lowerneck -17.0533 -3.43597 -7.62765
upperneck 25.3972 -4.7705 7.20112
head 11.4498 -2.01313 3.23621
rclavicle -7.63333e-014 -1.43125e-014
rhumerus 72.3112 -30.4902 -10.819
rradius 32.3756
rwrist -0.249887
rhand -22.4592 1.81319
rfingers 7.12502
rthumb 3.96535 -28.1297
lclavicle -7.63333e-014 -1.43125e-014
lhumerus 82.993 33.3986 -2.71566
lradius 32.0897
lwrist 66.7954
lhand -35.4613 -14.1716
lfingers 7.12502
lthumb -8.58995 15.6336
rfemur -74.1401 -0.225287 24.3013
rtibia 69.1583
rfoot 11.8606 -2.83146
rtoes 11.7954
lfemur -74.2617 16.4808 -38.6537
ltibia 73.8325
lfoot 4.07042 4.39232
ltoes 7.56095
